<?xml version="1.0" encoding="utf-8"?>
<!-- Generator: Adobe Illustrator 23.0.2, SVG Export Plug-In . SVG Version: 6.00 Build 0)  -->
<svg version="1.1" id="Layer_1" xmlns="http://www.w3.org/2000/svg" xmlns:xlink="http://www.w3.org/1999/xlink" x="0px" y="0px"
	 viewBox="0 0 566.93 566.93" style="enable-background:new 0 0 566.93 566.93;" xml:space="preserve">
<style type="text/css">
	.st0{fill:#ffffff;}
</style>
<g>
	<path class="st0" d="M492.5,7.77c4.31,14.81,9.21,29.68,12.89,44.85c3.81,15.72,7.79,31.61,9.3,47.65
		c3.3,35.09-7.06,66.72-28.08,94.86c-25.46,34.09-55.92,63.24-88.35,90.64c-30.28,25.58-57.51,54.28-80.79,86.47
		c-30.12,41.68-52.35,86.42-53.04,139.76c-2.28-11.52-4.89-22.99-6.76-34.57c-3.86-23.88-8.76-47.76-7.1-72.12
		c4.77-70.17,28.22-132.49,78.61-183.09c7.93-7.97,16.78-15.02,25.14-22.57c40.48-36.59,75.33-77.93,102.96-124.99
		C469.93,53.12,480.64,30.45,492.5,7.77z"/>
	<path class="st0" d="M314.3,438.72c4.69,0,7.72-0.18,10.73,0.03c22.14,1.5,43.26-2,62.32-13.83
		c22.68-14.08,33.68-35.76,37.95-61.32c3.06-18.29,2.99-36.42-5.32-53.58c-2.58-5.32-5.95-10.25-8.83-15.14
		c20.46-19.32,41.22-38.92,62.36-58.88c6.86,9.68,14.21,19.93,21.42,30.27c20.14,28.87,40.1,57.86,60.44,86.58
		c3.35,4.73,3.49,7.68-0.02,12.53c-45.24,62.55-90.21,125.3-135.22,188.01c-5.43,7.56-5.45,7.65-11.35,0.51
		c-30.45-36.79-60.86-73.61-91.27-110.43C316.73,442.53,316.14,441.46,314.3,438.72z"/>
	<path class="st0" d="M167.65,143.99c-1.37,15.84-3.93,31.24-3.79,46.61c0.42,44.8,16.3,83.92,44.74,118.55
		c10.97,13.36,19.72,28.56,29.32,43.03c3.03,4.56,3.53,9.51,2.37,15.14c-7.24,35.12-4.59,70.15,1.73,105.09
		c1.47,8.11,2.86,16.24,3.21,24.74c-3.38-9.2-7-18.32-10.09-27.62c-10.79-32.42-23.92-63.71-45.61-90.52
		c-10.14-12.53-22.06-23.59-32.45-35.93c-17.34-20.59-29.68-43.93-30.68-71.26c-0.53-14.43,1.15-29.31,4.31-43.44
		C137.49,198.01,153.81,171.59,167.65,143.99z"/>
	<path class="st0" d="M247.32,335.47c-12.3-15.91-24.61-31.29-36.31-47.12c-16.16-21.88-26.12-46.48-30.67-74.22
		c65.55-19.74,131.14-39.49,198.44-59.76c-2.17,2.64-3.14,4.1-4.38,5.28c-14.76,14.06-29.12,28.58-44.43,42
		c-39.66,34.78-65.27,78.22-80.85,128.09C248.51,331.72,247.88,333.7,247.32,335.47z"/>
	<path class="st0" d="M201.85,443.07c-13.11,28.56-28.03,55.92-42.86,83.32c-0.67-0.01-1.34-0.03-2.01-0.04
		c-2.8-6.7-5.76-13.35-8.39-20.12c-14.5-37.26-28.95-74.54-43.33-111.84c-0.8-2.08-1.77-4.76-1.12-6.63
		c7.2-20.72,14.7-41.33,22.36-62.66c6.05,8.7,11.74,16.7,17.13,24.89c0.65,0.99,0.01,3.19-0.59,4.59
		c-14.5,33.7-1.7,69.68,30.61,86.78C182.7,446.16,191.6,444.88,201.85,443.07z"/>
</g>
</svg>
